<?xml version="1.0" encoding="UTF-8"?>
<!DOCTYPE svg PUBLIC "-//W3C//DTD SVG 1.1//EN" "http://www.w3.org/Graphics/SVG/1.1/DTD/svg11.dtd">
<!-- Creator: CorelDRAW X8 -->
<svg xmlns="http://www.w3.org/2000/svg" xml:space="preserve" width="1000px" height="500px" version="1.1" style="shape-rendering:geometricPrecision; text-rendering:geometricPrecision; image-rendering:optimizeQuality; fill-rule:evenodd; clip-rule:evenodd"
viewBox="0 0 1000 500"
 xmlns:xlink="http://www.w3.org/1999/xlink">
 <defs>
  <style type="text/css">
   <![CDATA[
    .fil0 {fill:black}
   ]]>
  </style>
 </defs>
 <g id="Vrstva_x0020_1">
  <metadata id="CorelCorpID_0Corel-Layer"/>
  <g>
   <path class="fil0" d="M840 285c-1,1 -1,0 -3,0 0,0 0,-2 2,-1 2,1 0,0 1,1zm3 -2c2,0 1,0 2,1 -1,1 -1,0 -2,-1zm-142 -47c7,0 11,2 14,7 3,6 2,13 -2,16 -7,7 -28,4 -35,-1 -9,-8 -6,-24 9,-22 5,0 5,-1 9,2 2,1 3,3 4,6 3,9 -3,10 -3,16 3,-1 6,-6 6,-10 1,-8 -1,-8 -2,-14zm-462 1c-1,-3 -1,-4 0,-7l7 1c1,1 0,-2 1,1l-1 6 -7 -1zm476 -55c-3,-2 -2,1 -4,-3 2,-2 4,-2 3,-3 0,-1 0,0 0,-2 0,-2 -3,-2 -5,-3 -4,-1 -5,1 -8,1 -1,1 -15,1 -18,1l-1 2c-9,0 -19,-1 -29,-1l-2 -1c-9,-1 -7,0 -11,6 -6,0 -21,1 -26,-1 -9,-3 -28,0 -38,0 -3,-1 -5,-2 -7,-4 -3,-5 -1,-3 -16,-4l-15 0c-3,0 -1,0 -4,-1 -5,-2 -39,-3 -47,-2 -4,0 -4,1 -7,3 -1,-1 -2,-3 -3,-4 -1,0 -1,0 -2,-1 -2,-2 0,-2 -7,-1 -7,0 -1,2 -10,2 -2,1 -4,1 -6,1l-40 1c-6,-6 -10,-4 -11,2l-67 1c-12,1 -73,0 -81,1 -4,1 -10,0 -14,1 -5,2 -10,2 -15,2 -8,0 -8,2 -12,5 -1,1 -37,0 -42,0 -5,0 -3,0 -6,-1 -4,-1 -11,0 -14,1 -4,2 -12,-1 -14,-1 -2,0 -5,0 -8,0 -4,0 -4,1 -6,2l-86 0c-1,-1 0,0 -1,-1 0,-1 0,-2 0,-3 -3,-1 -5,-3 -8,-4l-1 -4c-4,0 -6,1 -9,1 -2,4 -1,1 -4,4 0,2 0,5 -1,6 -3,3 -13,-4 -11,9 1,7 6,5 13,6 2,1 9,0 12,0 8,0 14,-1 22,-1l35 0 0 9c1,0 0,0 2,0 5,2 28,1 33,1 5,10 1,9 15,9 6,0 8,-2 15,-1 4,0 2,1 7,1 3,0 7,0 9,0 3,0 2,-1 7,-1 9,0 61,1 64,2l2 6c1,5 2,3 3,6 -3,2 -5,2 -5,9 0,7 7,5 12,5 2,-2 3,-3 3,-6 0,-5 -1,-5 -4,-6 0,-3 0,-1 2,-3 2,-1 1,-5 2,-8l1 -1 36 1c11,0 24,0 35,1 11,0 25,0 36,1 11,1 24,0 35,1 20,1 51,2 71,2l53 3c5,0 12,1 17,1l13 0c1,0 1,0 3,0l18 1c3,0 2,2 14,4 5,0 11,0 17,0 5,1 12,1 16,2 6,0 12,0 18,1l24 2c3,0 5,-1 8,-1 1,9 2,5 4,11 3,7 2,13 12,15 3,1 7,3 11,3 38,3 26,-23 31,-26 5,0 16,4 20,6 13,6 20,13 28,23 14,18 24,6 38,6 2,0 4,1 5,1 4,1 2,1 5,2 4,2 7,0 7,6 1,7 15,7 19,6 5,-2 12,3 19,5 13,5 25,9 37,15 12,5 26,9 38,14 12,5 24,9 37,14 7,2 14,-4 17,-8 4,-6 4,-12 4,-21 0,-17 0,-32 2,-48 2,-22 1,-28 -22,-30 -16,-1 -31,-3 -46,-5 -31,-5 -62,-7 -93,-11 -8,-1 -15,-2 -23,-2 -22,0 -11,17 -61,-5 -12,-4 -27,-12 -40,-12l1 -5 0 -7z"/>
  </g>
 </g>
</svg>
