<svg width="329" height="56.99999999999999" xmlns="http://www.w3.org/2000/svg">

 <g>
  <title>Layer 1</title>
  <path stroke="#ffffff" id="svg_1" fill="#457B94" d="m10.44922,24.32923c-0.18667,-0.7467 -0.28,-1.44 -0.28,-2.08c0,-1.3067 0.38667,-2.2933 1.16,-2.96c0.77333,-0.6667 1.77333,-1 3,-1c0,-1.3867 -0.36,-2.8933 -1.08,-4.52c1.30667,-0.96 2.49333,-1.68 3.56,-2.16c1.0933,-0.5067 2.24,-0.76 3.44,-0.76c1.2,0 2.0267,0.2267 2.48,0.68c0.48,0.4267 0.72,1.0933 0.72,2c0,0.9067 -0.1867,2.32 -0.56,4.24c1.0667,-0.16 2.1467,-0.3867 3.24,-0.68c0.1867,0.56 0.28,1.28 0.28,2.16c0,0.88 -0.3467,1.7067 -1.04,2.48c-0.6667,0.7467 -1.6533,1.12 -2.96,1.12l-0.6,0c-0.96,4.3467 -1.44,7.6933 -1.44,10.04c0,2.3467 0.4133,3.9867 1.24,4.92c-1.4933,1.3067 -3.08,1.96 -4.76,1.96c-1.68,0 -2.89333,-0.4933 -3.64,-1.48c-0.72,-1.0133 -1.08,-2.5733 -1.08,-4.68c0,-1.28 0.46667,-4.64 1.4,-10.08c-1.06667,0.1867 -2.09333,0.4533 -3.08,0.8zm44.0301,-6.52c1.4933,0 2.7733,0.6 3.84,1.8c1.0933,1.2 1.64,2.9467 1.64,5.24c0,2.2667 -0.4,4.3733 -1.2,6.32c-0.8,1.92 -1.8533,3.4933 -3.16,4.72c-1.3067,1.2267 -2.7867,2.1867 -4.44,2.88c-1.6533,0.6667 -3.3467,1 -5.08,1c-3.4933,0 -6.2533,-0.96 -8.28,-2.88c-2.0267,-1.92 -3.04,-4.4667 -3.04,-7.64c0,-4.2933 1.3733,-7.7733 4.12,-10.44c2.7733,-2.6933 6.2933,-4.04 10.56,-4.04c0.96,0 1.92,0.1067 2.88,0.32c0.2933,0.88 0.4533,1.88 0.48,3c0.56,-0.1867 1.12,-0.28 1.68,-0.28zm-4.92,5.56c0,-0.7467 0.1733,-1.5867 0.52,-2.52c0.3733,-0.9333 0.96,-1.68 1.76,-2.24c-3.52,0.7467 -5.9467,2.1733 -7.28,4.28c-1.1467,1.8133 -1.72,3.68 -1.72,5.6c0,1.92 0.3867,3.4667 1.16,4.64c0.8,1.1467 1.8133,1.72 3.04,1.72c2.72,0 4.64,-1.7733 5.76,-5.32c-2.16,-1.3333 -3.24,-3.3867 -3.24,-6.16zm39.6804,-5.56c1.4934,0 2.7734,0.6 3.84,1.8c1.0934,1.2 1.64,2.9467 1.64,5.24c0,2.2667 -0.4,4.3733 -1.2,6.32c-0.8,1.92 -1.8533,3.4933 -3.16,4.72c-1.3066,1.2267 -2.7866,2.1867 -4.44,2.88c-1.6533,0.6667 -3.3466,1 -5.08,1c-3.4933,0 -6.2533,-0.96 -8.28,-2.88c-2.0266,-1.92 -3.04,-4.4667 -3.04,-7.64c0,-4.2933 1.3734,-7.7733 4.12,-10.44c2.7734,-2.6933 6.2934,-4.04 10.56,-4.04c0.96,0 1.92,0.1067 2.88,0.32c0.2934,0.88 0.4534,1.88 0.48,3c0.56,-0.1867 1.12,-0.28 1.68,-0.28zm-4.92,5.56c0,-0.7467 0.1734,-1.5867 0.52,-2.52c0.3734,-0.9333 0.96,-1.68 1.76,-2.24c-3.52,0.7467 -5.9466,2.1733 -7.28,4.28c-1.1466,1.8133 -1.72,3.68 -1.72,5.6c0,1.92 0.3867,3.4667 1.16,4.64c0.8,1.1467 1.8134,1.72 3.04,1.72c2.72,0 4.64,-1.7733 5.76,-5.32c-2.16,-1.3333 -3.24,-3.3867 -3.24,-6.16zm20.8404,0.96c-0.1866,-0.7467 -0.28,-1.44 -0.28,-2.08c0,-1.3067 0.3867,-2.2933 1.1601,-2.96c0.773,-0.6667 1.773,-1 3,-1c0,-1.3867 -0.36,-2.8933 -1.08,-4.52c1.307,-0.96 2.493,-1.68 3.56,-2.16c1.093,-0.5067 2.24,-0.76 3.44,-0.76c1.2,0 2.027,0.2267 2.48,0.68c0.48,0.4267 0.72,1.0933 0.72,2c0,0.9067 -0.187,2.32 -0.56,4.24c1.067,-0.16 2.147,-0.3867 3.24,-0.68c0.187,0.56 0.28,1.28 0.28,2.16c0,0.88 -0.347,1.7067 -1.04,2.48c-0.667,0.7467 -1.653,1.12 -2.96,1.12l-0.6,0c-0.96,4.3467 -1.44,7.6933 -1.44,10.04c0,2.3467 0.413,3.9867 1.24,4.92c-1.493,1.3067 -3.08,1.96 -4.76,1.96c-1.68,0 -2.893,-0.4933 -3.64,-1.48c-0.72,-1.0133 -1.08,-2.5733 -1.08,-4.68c0,-1.28 0.467,-4.64 1.4,-10.08c-1.067,0.1867 -2.093,0.4533 -3.0801,0.8zm46.7901,-9.56c3.227,0 4.84,1.6133 4.84,4.84c0,1.3867 -0.4,3.7333 -1.2,7.04c-0.773,3.3067 -1.16,5.8 -1.16,7.48c0,1.68 0.28,2.9067 0.84,3.68c-1.413,1.3067 -2.907,1.96 -4.48,1.96c-3.067,0 -4.6,-1.6533 -4.6,-4.96c0,-1.2267 0.4,-3.3067 1.2,-6.24c0.8,-2.9333 1.2,-4.84 1.2,-5.72c0,-1.2 -0.453,-1.8 -1.36,-1.8c-0.747,0 -1.6,0.3333 -2.56,1c-0.96,0.64 -1.893,1.52 -2.8,2.64c-0.88,1.0933 -1.627,2.4933 -2.24,4.2c-0.613,1.68 -0.92,3.4 -0.92,5.16c0,1.7333 0.28,2.9867 0.84,3.76c-1.413,1.3067 -2.907,1.96 -4.48,1.96c-3.067,0 -4.6,-1.6533 -4.6,-4.96c0,-1.9733 0.533,-5.9733 1.6,-12c0.907,-5.3067 1.427,-8.28 1.56,-8.92l-2.24,-3.2c3.333,-1.9467 5.96,-2.92 7.88,-2.92c1.093,0 1.867,0.2267 2.32,0.68c0.453,0.4267 0.68,1.1467 0.68,2.16c0,1.92 -0.187,4.0133 -0.56,6.28c-0.373,2.2667 -0.72,3.9333 -1.04,5l0.4,0.2c2.853,-4.88 6.48,-7.32 10.88,-7.32z"/>
  <path stroke="#ffffff" id="svg_3" fill="#B00000" d="m171.79383,50.72923c-1.653,0 -2.813,-0.4133 -3.48,-1.24c-0.64,-0.8 -0.96,-1.9733 -0.96,-3.52c0,-1.52 0.32,-4.6 0.96,-9.24c0.667,-4.64 1.307,-8.6 1.92,-11.88l-2.24,-3.2c1.653,-0.96 3.08,-1.68 4.28,-2.16c1.2,-0.5067 2.387,-0.76 3.56,-0.76c1.92,0 2.88,1.2667 2.88,3.8c0,0.3467 -0.053,1.0533 -0.16,2.12l0.4,0.2c0.773,-1.92 1.893,-3.4133 3.36,-4.48c1.467,-1.0933 3.187,-1.64 5.16,-1.64c2,0 3.587,0.9067 4.76,2.72c1.173,1.7867 1.76,4.0133 1.76,6.68c0,3.5733 -1.253,6.8267 -3.76,9.76c-1.227,1.44 -2.867,2.6133 -4.92,3.52c-2.053,0.88 -4.347,1.32 -6.88,1.32c-0.773,0 -1.787,-0.0667 -3.04,-0.2c-0.08,0.9333 -0.12,1.8 -0.12,2.6c0,1.7067 0.413,2.92 1.24,3.64c-1.493,1.3067 -3.067,1.96 -4.72,1.96zm5.24,-16.56l-0.92,4.64c3.227,-0.08 5.8,-1.1333 7.72,-3.16c1.947,-2.0533 2.92,-4.2933 2.92,-6.72c0,-1.2533 -0.253,-2.2533 -0.76,-3c-0.48,-0.7733 -1.187,-1.16 -2.12,-1.16c-3.307,0 -5.587,3.1333 -6.84,9.4zm41.992,3.68l-0.4,-0.2c-0.72,1.92 -1.76,3.4267 -3.12,4.52c-1.334,1.0667 -2.827,1.6 -4.48,1.6c-2.267,0 -4.08,-0.8533 -5.44,-2.56c-1.36,-1.7067 -2.04,-3.9867 -2.04,-6.84c0,-4.4267 1.48,-8.1333 4.44,-11.12c2.986,-2.9867 6.693,-4.48 11.12,-4.48c1.146,0 2.2,0.1067 3.16,0.32c0.16,0.7467 0.253,1.4 0.28,1.96c1.333,-0.8533 2.706,-1.28 4.12,-1.28c1.946,0 2.92,1.0533 2.92,3.16c0,0.7467 -0.427,3 -1.28,6.76c-0.827,3.76 -1.24,6.5467 -1.24,8.36c0,1.8133 0.413,3.0667 1.24,3.76c-1.494,1.3067 -3.054,1.96 -4.68,1.96c-1.6,0 -2.774,-0.48 -3.52,-1.44c-0.72,-0.96 -1.08,-2.4533 -1.08,-4.48zm-7.96,-5.44c0,1.3067 0.266,2.32 0.8,3.04c0.56,0.6933 1.346,1.04 2.36,1.04c1.013,0 2.013,-0.3733 3,-1.12c0.986,-0.7467 1.813,-1.7733 2.48,-3.08c0.24,-2.6933 0.76,-5.88 1.56,-9.56c-2.694,0 -5.067,0.9733 -7.12,2.92c-2.054,1.9467 -3.08,4.2 -3.08,6.76zm41.459,-8.32c-0.986,0.2933 -1.773,0.72 -2.36,1.28c-0.586,0.5333 -1.106,1.3067 -1.56,2.32c4.507,0.6667 7.68,1.6267 9.52,2.88c1.84,1.2533 2.76,3.04 2.76,5.36c0,1.4667 -0.413,2.7467 -1.24,3.84c-0.826,1.0667 -1.866,1.88 -3.12,2.44c-2.453,1.04 -4.866,1.56 -7.24,1.56c-6.746,0 -10.12,-1.4533 -10.12,-4.36c0,-1.4667 0.654,-2.9333 1.96,-4.4c0.667,0.9333 1.667,1.7333 3,2.4c1.36,0.6667 2.68,1 3.96,1c2.214,0 3.547,-0.9733 4,-2.92c-4.053,-0.48 -6.986,-1.3867 -8.8,-2.72c-1.813,-1.3333 -2.72,-3.2133 -2.72,-5.64c0,-1.92 0.627,-3.5333 1.88,-4.84c1.28,-1.3067 2.854,-2.2133 4.72,-2.72c1.894,-0.5333 4.014,-0.8 6.36,-0.8c2.374,0 4.32,0.4533 5.84,1.36c1.547,0.88 2.32,1.96 2.32,3.24c0,1.28 -0.453,2.2667 -1.36,2.96c-0.88,0.6933 -1.853,1.04 -2.92,1.04c-1.04,0 -2,-0.28 -2.88,-0.84c-0.853,-0.56 -1.52,-1.3733 -2,-2.44zm19.59,4.24c-0.186,-0.7467 -0.28,-1.44 -0.28,-2.08c0,-1.3067 0.387,-2.2933 1.16,-2.96c0.774,-0.6667 1.774,-1 3,-1c0,-1.3867 -0.36,-2.8933 -1.08,-4.52c1.307,-0.96 2.494,-1.68 3.56,-2.16c1.094,-0.5067 2.24,-0.76 3.44,-0.76c1.2,0 2.027,0.2267 2.48,0.68c0.48,0.4267 0.72,1.0933 0.72,2c0,0.9067 -0.186,2.32 -0.56,4.24c1.067,-0.16 2.147,-0.3867 3.24,-0.68c0.187,0.56 0.28,1.28 0.28,2.16c0,0.88 -0.346,1.7067 -1.04,2.48c-0.666,0.7467 -1.653,1.12 -2.96,1.12l-0.6,0c-0.96,4.3467 -1.44,7.6933 -1.44,10.04c0,2.3467 0.414,3.9867 1.24,4.92c-1.493,1.3067 -3.08,1.96 -4.76,1.96c-1.68,0 -2.893,-0.4933 -3.64,-1.48c-0.72,-1.0133 -1.08,-2.5733 -1.08,-4.68c0,-1.28 0.467,-4.64 1.4,-10.08c-1.066,0.1867 -2.093,0.4533 -3.08,0.8zm35.75,15.44c-3.653,0 -6.48,-0.9467 -8.48,-2.84c-1.973,-1.8933 -2.96,-4.4533 -2.96,-7.68c0,-4.2933 1.467,-7.7733 4.4,-10.44c2.96,-2.6933 6.667,-4.04 11.12,-4.04c2.48,0 4.36,0.56 5.64,1.68c1.28,1.0933 1.92,2.5467 1.92,4.36c0,2.48 -1.213,4.5467 -3.64,6.2c-2.4,1.6267 -6.12,2.4533 -11.16,2.48c0.08,1.7067 0.467,3.0533 1.16,4.04c0.694,0.96 1.56,1.44 2.6,1.44c1.04,0 1.934,-0.3467 2.68,-1.04c0.774,-0.6933 1.16,-1.8267 1.16,-3.4c3.894,0 5.84,0.92 5.84,2.76c0,1.5733 -0.96,3.0533 -2.88,4.44c-1.92,1.36 -4.386,2.04 -7.4,2.04zm3.4,-20.32c-1.36,0 -2.613,0.68 -3.76,2.04c-1.12,1.36 -1.933,2.96 -2.44,4.8c2.667,-0.2133 4.667,-0.8133 6,-1.8c1.36,-1.0133 2.04,-2.08 2.04,-3.2c0,-0.5333 -0.173,-0.9733 -0.52,-1.32c-0.32,-0.3467 -0.76,-0.52 -1.32,-0.52z"/>
 </g>
</svg>